<svg width="54" height="54" viewBox="0 0 54 54" fill="none" xmlns="http://www.w3.org/2000/svg">
<rect x="0.5" y="0.5" width="53" height="53" rx="26.5" stroke="#4D5C71"/>
<path d="M17.0527 27.3867L36.1523 20.0391C36.4531 19.9245 36.7253 19.9102 36.9688 19.9961C37.2122 20.082 37.3841 20.2611 37.4844 20.5332C37.599 20.8053 37.6133 21.1562 37.5273 21.5859L34.2832 36.9043C34.1543 37.4486 33.9323 37.7923 33.6172 37.9355C33.3164 38.0645 32.9368 38 32.4785 37.7422L27.5371 34.0898L25.1523 36.4102C24.9805 36.5677 24.8444 36.6751 24.7441 36.7324C24.5723 36.8327 24.3717 36.8828 24.1426 36.8828L24.4863 31.8555L33.6816 23.5625C33.8105 23.4479 33.8535 23.3548 33.8105 23.2832C33.7676 23.1973 33.6745 23.1615 33.5312 23.1758C33.388 23.1901 33.2305 23.2474 33.0586 23.3477L21.7148 30.502L16.8164 28.9766C16.4727 28.862 16.2363 28.7116 16.1074 28.5254C15.9928 28.3392 16.0143 28.1458 16.1719 27.9453C16.3294 27.7448 16.623 27.5586 17.0527 27.3867Z" fill="black"/>
</svg>
