<svg width="54" height="54" viewBox="0 0 54 54" fill="none" xmlns="http://www.w3.org/2000/svg">
<rect x="0.5" y="0.5" width="53" height="53" rx="26.5" stroke="#4D5C71"/>
<path d="M34.7129 19.2227C35.7441 20.2539 36.5319 21.4355 37.0762 22.7676C37.6348 24.0853 37.9069 25.4818 37.8926 26.957C37.8926 28.418 37.6061 29.8216 37.0332 31.168C36.4889 32.4714 35.7083 33.6243 34.6914 34.627C33.6888 35.6296 32.5358 36.403 31.2324 36.9473C29.8861 37.5202 28.4753 37.8066 27 37.8066C25.138 37.8066 23.3978 37.3698 21.7793 36.4961L16 38L17.5469 32.3496C16.5729 30.6738 16.0859 28.862 16.0859 26.9141C16.0859 25.4388 16.3724 24.028 16.9453 22.6816C17.5039 21.3783 18.2845 20.2253 19.2871 19.2227C20.2897 18.2201 21.4427 17.4466 22.7461 16.9023C24.1068 16.3294 25.5176 16.043 26.9785 16.043C28.4538 16.043 29.8503 16.3223 31.168 16.8809C32.5 17.4251 33.6816 18.2057 34.7129 19.2227ZM27 35.9805C28.6328 35.9805 30.1582 35.5651 31.5762 34.7344C32.9368 33.9323 34.0182 32.8509 34.8203 31.4902C35.651 30.0866 36.0664 28.5684 36.0664 26.9355C36.0664 25.7181 35.8372 24.5579 35.3789 23.4551C34.9206 22.3522 34.2617 21.3783 33.4023 20.5332C32.5573 19.6738 31.5833 19.015 30.4805 18.5566C29.3776 18.0983 28.2174 17.8691 27 17.8691C25.3672 17.8691 23.8418 18.2845 22.4238 19.1152C21.0632 19.9173 19.9818 20.9987 19.1797 22.3594C18.349 23.763 17.9336 25.2812 17.9336 26.9141C17.9336 27.7734 18.0482 28.6113 18.2773 29.4277C18.5208 30.2441 18.8646 31.0104 19.3086 31.7266L19.5449 32.0703L18.6211 35.4219L22.0586 34.5195L22.3809 34.7129C23.7988 35.5579 25.3385 35.9805 27 35.9805ZM31.9629 29.1914L32.1348 29.2773C32.3353 29.3776 32.4499 29.4635 32.4785 29.5352C32.5215 29.5924 32.5358 29.7357 32.5215 29.9648C32.4928 30.237 32.4284 30.5234 32.3281 30.8242C32.2279 31.1107 31.9629 31.39 31.5332 31.6621C31.1465 31.9056 30.8027 32.0488 30.502 32.0918C29.8717 32.1921 29.2988 32.1562 28.7832 31.9844C28.196 31.7982 27.6732 31.612 27.2148 31.4258C26.1406 30.9531 25.0951 30.194 24.0781 29.1484C23.5482 28.6042 23.0612 28.0098 22.6172 27.3652L22.5742 27.3008C22.3451 27.0143 22.1374 26.6921 21.9512 26.334C21.6217 25.6751 21.457 25.0736 21.457 24.5293C21.457 23.9707 21.5716 23.4694 21.8008 23.0254C21.9297 22.7962 22.1159 22.5527 22.3594 22.2949L22.4023 22.2305C22.6172 22.0013 22.8607 21.8867 23.1328 21.8867L23.7129 21.9082C23.8275 21.9082 23.9206 21.9225 23.9922 21.9512C24.0924 22.0228 24.1855 22.1589 24.2715 22.3594L24.4863 22.875C24.873 23.8203 25.0807 24.3216 25.1094 24.3789C25.1953 24.5508 25.2025 24.7083 25.1309 24.8516L25.1094 24.916C25.0234 25.0879 24.9375 25.224 24.8516 25.3242L24.7227 25.4746C24.5938 25.6322 24.5007 25.7396 24.4434 25.7969C24.3574 25.8828 24.3073 25.9544 24.293 26.0117C24.25 26.112 24.2643 26.2266 24.3359 26.3555C24.7656 27.1003 25.2741 27.7233 25.8613 28.2246C26.2337 28.5684 26.6276 28.862 27.043 29.1055C27.2721 29.2344 27.5443 29.3704 27.8594 29.5137L28.0312 29.5781C28.1745 29.6497 28.2891 29.6784 28.375 29.6641C28.4609 29.6497 28.5469 29.5996 28.6328 29.5137C29.0482 29.0267 29.3346 28.6686 29.4922 28.4395C29.5781 28.3249 29.6712 28.2604 29.7715 28.2461C29.8431 28.2318 29.9577 28.2533 30.1152 28.3105C30.3301 28.3822 30.946 28.6758 31.9629 29.1914Z" fill="black"/>
</svg>
